<mxfile host="app.diagrams.net" modified="2021-07-11T20:10:29.142Z" agent="5.0 (Windows NT 10.0; Win64; x64) AppleWebKit/537.36 (KHTML, like Gecko) Chrome/91.0.4472.124 Safari/537.36" etag="pPRw2lSLNbrONtqH1hhU" version="14.8.5" type="github">
  <diagram id="Nss086CsB5ib8QI-UMNw" name="Page-1">
    <mxGraphModel dx="868" dy="393" grid="1" gridSize="10" guides="1" tooltips="1" connect="1" arrows="1" fold="1" page="1" pageScale="1" pageWidth="827" pageHeight="1169" math="0" shadow="0">
      <root>
        <mxCell id="0" />
        <mxCell id="1" parent="0" />
        <mxCell id="3s1HIrMQV7G_PzFh2xxA-22" style="edgeStyle=none;rounded=0;orthogonalLoop=1;jettySize=auto;html=1;exitX=0.5;exitY=0.5;exitDx=0;exitDy=-25;exitPerimeter=0;" edge="1" parent="1" source="3s1HIrMQV7G_PzFh2xxA-19" target="3s1HIrMQV7G_PzFh2xxA-21">
          <mxGeometry relative="1" as="geometry">
            <Array as="points" />
          </mxGeometry>
        </mxCell>
        <mxCell id="3s1HIrMQV7G_PzFh2xxA-19" value="Cliente&amp;nbsp;" style="html=1;dashed=0;whitespace=wrap;shape=mxgraph.dfd.start" vertex="1" parent="1">
          <mxGeometry x="90" y="230" width="80" height="50" as="geometry" />
        </mxCell>
        <mxCell id="3s1HIrMQV7G_PzFh2xxA-25" style="edgeStyle=none;rounded=0;orthogonalLoop=1;jettySize=auto;html=1;exitX=0;exitY=0.25;exitDx=0;exitDy=0;entryX=0;entryY=0.5;entryDx=0;entryDy=0;entryPerimeter=0;" edge="1" parent="1" source="3s1HIrMQV7G_PzFh2xxA-20" target="3s1HIrMQV7G_PzFh2xxA-19">
          <mxGeometry relative="1" as="geometry">
            <Array as="points">
              <mxPoint x="20" y="80" />
              <mxPoint x="20" y="255" />
            </Array>
          </mxGeometry>
        </mxCell>
        <mxCell id="3s1HIrMQV7G_PzFh2xxA-28" style="edgeStyle=none;rounded=0;orthogonalLoop=1;jettySize=auto;html=1;exitX=0.5;exitY=0;exitDx=0;exitDy=0;entryX=0.58;entryY=-0.033;entryDx=0;entryDy=0;entryPerimeter=0;" edge="1" parent="1" source="3s1HIrMQV7G_PzFh2xxA-20" target="3s1HIrMQV7G_PzFh2xxA-27">
          <mxGeometry relative="1" as="geometry">
            <Array as="points">
              <mxPoint x="130" y="20" />
              <mxPoint x="280" y="20" />
              <mxPoint x="418" y="20" />
            </Array>
          </mxGeometry>
        </mxCell>
        <mxCell id="3s1HIrMQV7G_PzFh2xxA-33" style="edgeStyle=none;rounded=0;orthogonalLoop=1;jettySize=auto;html=1;entryX=0;entryY=0;entryDx=0;entryDy=0;" edge="1" parent="1" source="3s1HIrMQV7G_PzFh2xxA-20" target="3s1HIrMQV7G_PzFh2xxA-32">
          <mxGeometry relative="1" as="geometry">
            <Array as="points">
              <mxPoint x="300" y="93" />
            </Array>
          </mxGeometry>
        </mxCell>
        <mxCell id="3s1HIrMQV7G_PzFh2xxA-20" value="1" style="swimlane;fontStyle=0;childLayout=stackLayout;horizontal=1;startSize=20;fillColor=#ffffff;horizontalStack=0;resizeParent=1;resizeParentMax=0;resizeLast=0;collapsible=0;marginBottom=0;swimlaneFillColor=#ffffff;" vertex="1" parent="1">
          <mxGeometry x="80" y="70" width="100" height="40" as="geometry" />
        </mxCell>
        <mxCell id="3s1HIrMQV7G_PzFh2xxA-21" value="Vendedor" style="text;html=1;resizable=0;autosize=1;align=center;verticalAlign=middle;points=[];fillColor=none;strokeColor=none;rounded=0;" vertex="1" parent="3s1HIrMQV7G_PzFh2xxA-20">
          <mxGeometry y="20" width="100" height="20" as="geometry" />
        </mxCell>
        <mxCell id="3s1HIrMQV7G_PzFh2xxA-23" value="Información &lt;br&gt;de compra&amp;nbsp;" style="text;html=1;resizable=0;autosize=1;align=center;verticalAlign=middle;points=[];fillColor=none;strokeColor=none;rounded=0;" vertex="1" parent="1">
          <mxGeometry x="130" y="160" width="80" height="30" as="geometry" />
        </mxCell>
        <mxCell id="3s1HIrMQV7G_PzFh2xxA-26" value="Confirmar &lt;br&gt;compra&amp;nbsp;" style="text;html=1;resizable=0;autosize=1;align=center;verticalAlign=middle;points=[];fillColor=none;strokeColor=none;rounded=0;" vertex="1" parent="1">
          <mxGeometry x="20" y="145" width="70" height="30" as="geometry" />
        </mxCell>
        <mxCell id="3s1HIrMQV7G_PzFh2xxA-29" style="edgeStyle=none;rounded=0;orthogonalLoop=1;jettySize=auto;html=1;exitX=0.75;exitY=0;exitDx=0;exitDy=0;" edge="1" parent="1" source="3s1HIrMQV7G_PzFh2xxA-27">
          <mxGeometry relative="1" as="geometry">
            <mxPoint x="700" y="50" as="targetPoint" />
            <Array as="points">
              <mxPoint x="435" y="20" />
              <mxPoint x="700" y="20" />
            </Array>
          </mxGeometry>
        </mxCell>
        <mxCell id="3s1HIrMQV7G_PzFh2xxA-27" value="Base de Datos&amp;nbsp;&lt;br&gt;Clientes" style="html=1;dashed=0;whitespace=wrap;shape=partialRectangle;right=0;" vertex="1" parent="1">
          <mxGeometry x="360" y="75" width="100" height="30" as="geometry" />
        </mxCell>
        <mxCell id="3s1HIrMQV7G_PzFh2xxA-30" value="1.1" style="swimlane;fontStyle=0;childLayout=stackLayout;horizontal=1;startSize=20;fillColor=#ffffff;horizontalStack=0;resizeParent=1;resizeParentMax=0;resizeLast=0;collapsible=0;marginBottom=0;swimlaneFillColor=#ffffff;" vertex="1" parent="1">
          <mxGeometry x="640" y="55" width="100" height="50" as="geometry" />
        </mxCell>
        <mxCell id="3s1HIrMQV7G_PzFh2xxA-35" value="Administrador&lt;br&gt;&amp;nbsp;de cliente&amp;nbsp;" style="text;html=1;resizable=0;autosize=1;align=center;verticalAlign=middle;points=[];fillColor=none;strokeColor=none;rounded=0;" vertex="1" parent="3s1HIrMQV7G_PzFh2xxA-30">
          <mxGeometry y="20" width="100" height="30" as="geometry" />
        </mxCell>
        <mxCell id="3s1HIrMQV7G_PzFh2xxA-50" style="edgeStyle=none;rounded=0;orthogonalLoop=1;jettySize=auto;html=1;entryX=0.75;entryY=0.2;entryDx=0;entryDy=0;entryPerimeter=0;" edge="1" parent="1" source="3s1HIrMQV7G_PzFh2xxA-32" target="3s1HIrMQV7G_PzFh2xxA-19">
          <mxGeometry relative="1" as="geometry">
            <Array as="points">
              <mxPoint x="350" y="210" />
              <mxPoint x="350" y="240" />
            </Array>
          </mxGeometry>
        </mxCell>
        <mxCell id="3s1HIrMQV7G_PzFh2xxA-32" value="Datos de factura&amp;nbsp;&lt;br&gt;Database" style="html=1;dashed=0;whitespace=wrap;shape=partialRectangle;right=0;" vertex="1" parent="1">
          <mxGeometry x="300" y="145" width="100" height="30" as="geometry" />
        </mxCell>
        <mxCell id="3s1HIrMQV7G_PzFh2xxA-34" value="Detalle de compra" style="text;html=1;resizable=0;autosize=1;align=center;verticalAlign=middle;points=[];fillColor=none;strokeColor=none;rounded=0;" vertex="1" parent="1">
          <mxGeometry x="205" y="75" width="110" height="20" as="geometry" />
        </mxCell>
        <mxCell id="3s1HIrMQV7G_PzFh2xxA-36" style="edgeStyle=none;rounded=0;orthogonalLoop=1;jettySize=auto;html=1;" edge="1" parent="1" source="3s1HIrMQV7G_PzFh2xxA-35">
          <mxGeometry relative="1" as="geometry">
            <mxPoint x="690" y="210" as="targetPoint" />
          </mxGeometry>
        </mxCell>
        <mxCell id="3s1HIrMQV7G_PzFh2xxA-39" value="" style="edgeStyle=none;rounded=0;orthogonalLoop=1;jettySize=auto;html=1;" edge="1" parent="1" source="3s1HIrMQV7G_PzFh2xxA-37">
          <mxGeometry relative="1" as="geometry">
            <mxPoint x="560" y="340" as="targetPoint" />
            <Array as="points">
              <mxPoint x="690" y="340" />
            </Array>
          </mxGeometry>
        </mxCell>
        <mxCell id="3s1HIrMQV7G_PzFh2xxA-37" value="Administrador" style="html=1;dashed=0;whitespace=wrap;" vertex="1" parent="1">
          <mxGeometry x="640" y="210" width="100" height="30" as="geometry" />
        </mxCell>
        <mxCell id="3s1HIrMQV7G_PzFh2xxA-49" style="edgeStyle=none;rounded=0;orthogonalLoop=1;jettySize=auto;html=1;entryX=0.68;entryY=1.067;entryDx=0;entryDy=0;entryPerimeter=0;exitX=-0.017;exitY=0.75;exitDx=0;exitDy=0;exitPerimeter=0;" edge="1" parent="1" source="3s1HIrMQV7G_PzFh2xxA-41" target="3s1HIrMQV7G_PzFh2xxA-42">
          <mxGeometry relative="1" as="geometry">
            <Array as="points">
              <mxPoint x="383" y="335" />
            </Array>
          </mxGeometry>
        </mxCell>
        <mxCell id="3s1HIrMQV7G_PzFh2xxA-40" value="2" style="swimlane;fontStyle=0;childLayout=stackLayout;horizontal=1;startSize=20;fillColor=#ffffff;horizontalStack=0;resizeParent=1;resizeParentMax=0;resizeLast=0;collapsible=0;marginBottom=0;swimlaneFillColor=#ffffff;" vertex="1" parent="1">
          <mxGeometry x="450" y="300" width="123" height="40" as="geometry" />
        </mxCell>
        <mxCell id="3s1HIrMQV7G_PzFh2xxA-41" value="Gestión de inventario" style="text;html=1;resizable=0;autosize=1;align=center;verticalAlign=middle;points=[];fillColor=none;strokeColor=none;rounded=0;" vertex="1" parent="3s1HIrMQV7G_PzFh2xxA-40">
          <mxGeometry y="20" width="123" height="20" as="geometry" />
        </mxCell>
        <mxCell id="3s1HIrMQV7G_PzFh2xxA-43" style="edgeStyle=none;rounded=0;orthogonalLoop=1;jettySize=auto;html=1;exitX=0;exitY=0.25;exitDx=0;exitDy=0;entryX=1.01;entryY=1.15;entryDx=0;entryDy=0;entryPerimeter=0;" edge="1" parent="1" source="3s1HIrMQV7G_PzFh2xxA-42" target="3s1HIrMQV7G_PzFh2xxA-21">
          <mxGeometry relative="1" as="geometry">
            <Array as="points">
              <mxPoint x="181" y="258" />
            </Array>
          </mxGeometry>
        </mxCell>
        <mxCell id="3s1HIrMQV7G_PzFh2xxA-45" style="edgeStyle=none;rounded=0;orthogonalLoop=1;jettySize=auto;html=1;" edge="1" parent="1" source="3s1HIrMQV7G_PzFh2xxA-42">
          <mxGeometry relative="1" as="geometry">
            <mxPoint x="140" y="330" as="targetPoint" />
            <Array as="points">
              <mxPoint x="362" y="330" />
            </Array>
          </mxGeometry>
        </mxCell>
        <mxCell id="3s1HIrMQV7G_PzFh2xxA-42" value="Datos de productos&amp;nbsp;&lt;br&gt;Database" style="html=1;dashed=0;whitespace=wrap;shape=partialRectangle;right=0;" vertex="1" parent="1">
          <mxGeometry x="315" y="250" width="100" height="30" as="geometry" />
        </mxCell>
        <mxCell id="3s1HIrMQV7G_PzFh2xxA-44" value="Lista de productos&lt;br&gt;" style="text;html=1;align=center;verticalAlign=middle;resizable=0;points=[];autosize=1;strokeColor=none;" vertex="1" parent="1">
          <mxGeometry x="180" y="255" width="110" height="20" as="geometry" />
        </mxCell>
        <mxCell id="3s1HIrMQV7G_PzFh2xxA-46" value="2" style="swimlane;fontStyle=0;childLayout=stackLayout;horizontal=1;startSize=20;fillColor=#ffffff;horizontalStack=0;resizeParent=1;resizeParentMax=0;resizeLast=0;collapsible=0;marginBottom=0;swimlaneFillColor=#ffffff;" vertex="1" parent="1">
          <mxGeometry x="50" y="310" width="100" height="60" as="geometry" />
        </mxCell>
        <mxCell id="3s1HIrMQV7G_PzFh2xxA-47" style="edgeStyle=none;rounded=0;orthogonalLoop=1;jettySize=auto;html=1;exitX=0.5;exitY=0;exitDx=0;exitDy=0;entryX=0.6;entryY=0;entryDx=0;entryDy=0;entryPerimeter=0;" edge="1" parent="1" source="3s1HIrMQV7G_PzFh2xxA-46" target="3s1HIrMQV7G_PzFh2xxA-46">
          <mxGeometry relative="1" as="geometry" />
        </mxCell>
        <mxCell id="3s1HIrMQV7G_PzFh2xxA-48" value="Disponibilidad&lt;br&gt;&amp;nbsp;del producto&lt;br&gt;" style="text;html=1;resizable=0;autosize=1;align=center;verticalAlign=middle;points=[];fillColor=none;strokeColor=none;rounded=0;" vertex="1" parent="1">
          <mxGeometry x="55" y="335" width="90" height="30" as="geometry" />
        </mxCell>
        <mxCell id="3s1HIrMQV7G_PzFh2xxA-51" value="Emitir Factura" style="text;html=1;resizable=0;autosize=1;align=center;verticalAlign=middle;points=[];fillColor=none;strokeColor=none;rounded=0;" vertex="1" parent="1">
          <mxGeometry x="240" y="215" width="90" height="20" as="geometry" />
        </mxCell>
      </root>
    </mxGraphModel>
  </diagram>
</mxfile>
